<?xml version="1.0" standalone="no"?>
<!DOCTYPE svg PUBLIC "-//W3C//DTD SVG 20010904//EN"
 "http://www.w3.org/TR/2001/REC-SVG-20010904/DTD/svg10.dtd">
<svg version="1.0" xmlns="http://www.w3.org/2000/svg"
 width="300.000000pt" height="300.000000pt" viewBox="0 0 300.000000 300.000000"
 preserveAspectRatio="xMidYMid meet">
<metadata>
Created by potrace 1.10, written by Peter Selinger 2001-2011
</metadata>
<g transform="translate(0.000000,300.000000) scale(0.100000,-0.100000)"
fill="#000000" stroke="none">
<path d="M1409 2538 c0 -2 -2 -30 -4 -63 -2 -33 -5 -67 -6 -75 -1 -8 0 -46 4
-85 4 -45 3 -57 -2 -35 -7 30 -9 24 -12 -40 -5 -125 -7 -140 -38 -340 -36
-223 -62 -342 -91 -405 -15 -33 -58 -143 -96 -243 -37 -101 -76 -195 -87 -208
-23 -29 -90 -64 -170 -89 -88 -27 -91 -37 -95 -235 -3 -186 7 -225 61 -243 83
-27 488 178 602 305 l45 50 -7 196 c-5 166 -3 207 11 264 14 57 16 98 10 280
-8 241 -2 272 59 301 48 24 64 9 71 -65 4 -35 12 -95 18 -135 12 -81 7 -103
-21 -103 -11 0 -23 -5 -27 -12 -5 -8 3 -9 28 -5 l35 5 6 -86 c4 -68 14 -110
45 -192 51 -134 58 -176 38 -225 -17 -40 -14 -57 6 -37 7 7 14 43 16 80 4 60
-1 80 -37 177 -35 92 -43 129 -52 225 -5 63 -14 145 -19 182 -6 37 -9 86 -9
110 1 24 12 -31 25 -122 31 -215 60 -313 143 -485 76 -158 108 -194 223 -250
50 -24 64 -36 70 -60 4 -16 7 -102 5 -191 -2 -193 -5 -199 -82 -189 -99 13
-301 107 -415 193 -25 19 -60 56 -78 83 -33 49 -52 62 -52 36 0 -25 59 -96
122 -146 107 -86 366 -201 453 -201 21 0 39 8 56 26 23 25 24 28 24 219 0 191
0 194 -24 219 -14 14 -31 26 -38 26 -27 0 -110 49 -147 87 -42 43 -122 202
-173 343 -44 123 -53 162 -79 360 -2 19 -7 43 -10 52 -3 9 -9 68 -14 130 -5
62 -14 138 -19 170 -5 31 -12 105 -15 165 -4 59 -12 123 -17 141 -6 18 -9 42
-6 53 13 49 -67 29 -85 -21 -10 -31 -28 -41 -28 -16 0 25 -116 143 -121 124z
m41 -61 c0 -7 10 -17 23 -22 37 -17 57 -71 57 -157 0 -73 -1 -76 -22 -70 -14
3 -19 2 -14 -6 4 -7 14 -12 22 -12 11 0 14 -22 14 -121 0 -111 -1 -121 -17
-114 -28 11 -31 11 -32 0 -1 -5 7 -11 19 -13 18 -3 20 -11 20 -69 0 -63 -1
-65 -18 -50 -28 25 -88 22 -106 -5 -22 -34 -73 -240 -92 -370 -9 -62 -29 -149
-45 -192 -34 -95 -54 -195 -41 -208 6 -6 12 12 15 45 4 30 22 97 41 148 20 55
39 135 47 191 11 88 14 96 30 87 23 -12 39 -12 39 1 0 6 -6 10 -12 10 -45 1
-44 31 9 203 26 86 27 87 59 87 56 0 64 -18 64 -143 0 -62 -6 -146 -14 -187
-19 -96 -19 -133 -7 -370 13 -257 14 -320 0 -320 -6 0 -27 -17 -47 -38 -68
-70 -299 -201 -451 -256 -84 -30 -121 -28 -140 8 -18 33 -11 347 7 369 8 9 39
23 70 32 71 21 151 65 175 96 24 33 172 432 204 549 14 52 36 154 49 225 13
72 28 155 34 185 24 119 47 348 42 423 -3 52 -1 77 7 77 6 0 11 -6 11 -13z
m178 -65 c0 -20 5 -93 12 -162 6 -69 13 -143 15 -165 2 -22 6 -47 9 -55 2 -8
7 -40 11 -70 3 -30 7 -71 10 -90 2 -19 2 -26 -1 -15 -4 11 -11 26 -16 33 -16
19 -72 14 -102 -9 l-26 -20 0 50 0 50 45 7 c25 3 48 11 51 16 4 7 -11 8 -42 4
l-49 -7 0 113 0 113 34 5 c19 3 36 10 38 17 3 8 -6 10 -31 6 l-36 -6 0 72 c0
52 6 83 20 110 31 62 59 64 58 3z m-107 -965 c1 -91 -10 -169 -22 -161 -5 3
-9 22 -9 42 0 45 22 204 27 198 2 -2 4 -37 4 -79z"/>
<path d="M1551 2514 c-29 -37 -29 -64 0 -38 11 10 28 19 36 19 9 0 19 10 24
23 7 19 5 22 -16 22 -14 0 -32 -11 -44 -26z"/>
<path d="M1551 1772 c-1 -7 6 -24 15 -37 17 -26 67 -35 80 -14 4 8 -3 9 -23 5
-30 -7 -53 9 -66 44 -4 10 -6 11 -6 2z"/>
</g>
</svg>
