<?xml version="1.0" encoding="UTF-8"?>
<svg version="1.1" xmlns="http://www.w3.org/2000/svg" width="487" height="512">
<path d="M0 0 C0 3.66683193 -0.65462926 4.06456457 -3.1484375 6.609375 C-4.54836516 7.99863655 -5.95768224 9.37848425 -7.375 10.75 C-8.39400391 11.81541016 -8.39400391 11.81541016 -9.43359375 12.90234375 C-14.53146515 17.82869798 -14.53146515 17.82869798 -18.42993164 18.28344727 C-21.02381445 18.04239702 -23.4613611 17.58027438 -26 17 C-27.56488655 16.73940193 -29.13133928 16.48803433 -30.69921875 16.24609375 C-31.49972656 16.11348145 -32.30023438 15.98086914 -33.125 15.84423828 C-86.64794893 7.34869399 -141.87462909 21.89570304 -185.51171875 53.52734375 C-193.14376514 59.18013424 -200.14605999 65.4456731 -207 72 C-207.92683594 72.87398438 -208.85367188 73.74796875 -209.80859375 74.6484375 C-216.96047487 81.56699484 -223.13143084 88.98972793 -229 97 C-229.41604492 97.56638184 -229.83208984 98.13276367 -230.26074219 98.71630859 C-261.69519171 142.15368234 -274.40002843 197.77619257 -265.96875 250.625 C-262.00504569 273.29345769 -255.03437785 294.76849539 -244 315 C-243.68063477 315.5971582 -243.36126953 316.19431641 -243.03222656 316.80957031 C-234.73738359 332.26239961 -224.30307135 347.01861877 -211.671875 359.25 C-209 362 -209 362 -209 364 C-208.40727295 364.26329102 -207.8145459 364.52658203 -207.20385742 364.79785156 C-204.90581084 366.05137781 -203.51791699 367.33014054 -201.73828125 369.234375 C-198.13414088 372.93908267 -194.29946153 376.12634607 -190.1875 379.25 C-189.0893396 380.08470825 -189.0893396 380.08470825 -187.96899414 380.9362793 C-159.29560585 402.35675398 -125.5003573 416.36446255 -90 421 C-88.90981567 421.14356934 -88.90981567 421.14356934 -87.79760742 421.29003906 C-79.99017502 422.19586031 -72.1625362 422.24340868 -64.3125 422.25 C-63.58656647 422.25067474 -62.86063293 422.25134949 -62.11270142 422.25204468 C-28.26163285 422.20235998 4.2102919 414.24747648 34 398 C34.5971582 397.68063477 35.19431641 397.36126953 35.80957031 397.03222656 C82.56878403 371.93259413 117.57217698 327.72892752 132.88427734 277.07470703 C142.242846 244.14961003 144.82755508 208.79060561 136.8984375 175.2421875 C135.36520575 168.16119017 135.36520575 168.16119017 136 165 C138.15013938 162.20950806 140.67361598 159.9464425 143.3125 157.625 C144.00279297 156.98433594 144.69308594 156.34367188 145.40429688 155.68359375 C150.57222814 151 150.57222814 151 154 151 C170.40624389 210.07544736 166.04755688 270.45649361 137 325 C136.65211426 325.66241699 136.30422852 326.32483398 135.94580078 327.00732422 C120.40811267 356.42582112 97.02361564 382.62831778 70 402 C69.44828125 402.39751465 68.8965625 402.7950293 68.328125 403.20458984 C51.27231795 415.35587439 32.71316818 424.98079578 13 432 C11.8553125 432.41306396 11.8553125 432.41306396 10.6875 432.83447266 C-45.09257054 452.64165096 -107.68008885 448.46487509 -161.05078125 423.41015625 C-192.19864275 408.41754674 -220.73041828 386.3666282 -242 359 C-242.63010986 358.19248291 -242.63010986 358.19248291 -243.27294922 357.36865234 C-280.55070378 309.22685808 -296.45653349 249.52497909 -289.48095703 189.15209961 C-284.62075992 151.73395225 -270.33338569 113.86848807 -247 84 C-246.16076758 82.89505555 -245.32227028 81.78955252 -244.484375 80.68359375 C-221.83183009 51.0386102 -192.94075284 27.63369962 -159 12 C-157.88882813 11.48050781 -156.77765625 10.96101563 -155.6328125 10.42578125 C-107.706031 -11.05669375 -50.39781497 -15.91509947 0 0 Z " fill="#131313" transform="translate(307,33)"/>
<path d="M0 0 C-0.49789803 15.3146565 -1.45856993 30.58940825 -2.5 45.875 C-2.56571198 46.8482019 -2.63142395 47.82140381 -2.6991272 48.82409668 C-2.89070669 51.65113566 -3.08536563 54.47794383 -3.28125 57.3046875 C-3.36719673 58.56939377 -3.36719673 58.56939377 -3.45487976 59.85964966 C-3.83497125 65.25939585 -4.37165574 70.62334174 -5 76 C-3.29263672 75.83564453 -3.29263672 75.83564453 -1.55078125 75.66796875 C12.74207331 74.3405916 27.05398618 73.34036334 41.375 72.375 C42.37212006 72.30679047 43.36924011 72.23858093 44.39657593 72.16830444 C47.29281633 71.97083013 50.18931448 71.7777089 53.0859375 71.5859375 C53.95095383 71.52665573 54.81597015 71.46737396 55.7071991 71.40629578 C61.15047219 71.05290624 66.54511759 70.94851942 72 71 C67.33273237 76.60029109 62.36215962 81.79181631 57.21240234 86.94873047 C56.34988358 87.81621414 55.48736481 88.68369781 54.59870911 89.57746887 C52.25170343 91.93650184 49.90246399 94.29325712 47.55167341 96.64851522 C46.081434 98.12170002 44.61177731 99.59546378 43.14229202 101.06940079 C38.5388552 105.68646994 33.93345258 110.30156457 29.32513368 114.91376102 C24.01396584 120.2294238 18.70943033 125.55159121 13.41047132 130.87942398 C9.30435816 135.00713123 5.19252002 139.12907745 1.07626498 143.24667084 C-1.37880578 145.70278964 -3.8313853 148.1612789 -6.27803421 150.62578964 C-9.00080791 153.36805987 -11.73539697 156.09835321 -14.47119141 158.82763672 C-15.27959976 159.64525986 -16.08800812 160.462883 -16.9209137 161.30528259 C-17.6666011 162.04540085 -18.41228851 162.7855191 -19.18057251 163.54806519 C-19.82540903 164.19436827 -20.47024555 164.84067135 -21.13462257 165.50655937 C-24.54482242 168.23680095 -27.56040588 168.10166651 -31.75366211 167.63964844 C-53.10428504 165.64514471 -75.29607731 164.89027295 -92.75258541 178.77905846 C-99.9436042 184.77764958 -106.50709287 191.39222286 -112.9375 198.1875 C-113.52155987 198.79959824 -114.10561974 199.41169647 -114.70737839 200.04234314 C-118.64462849 204.18103911 -122.49376364 208.38848942 -126.27734375 212.66796875 C-126.77443848 213.22490355 -127.2715332 213.78183834 -127.78369141 214.35564995 C-133.36315762 220.68125988 -136.99625494 225.30557931 -137 234 C-139.09845026 239.58553531 -142.76416458 243.0916868 -147.828125 246.078125 C-152.65468029 248.12680674 -158.51489511 247.99733895 -163.35546875 246.0546875 C-168.37260149 243.06135127 -171.73233026 239.5957047 -174.3125 234.3125 C-175.44533531 228.85429351 -175.38163599 223.79195646 -172.87109375 218.71875 C-168.77933575 212.74277647 -163.78543884 209.9842141 -156.875 208.1875 C-153.37128814 206.74031466 -151.99873622 204.92545827 -149.69850159 201.99543762 C-148.03719018 200.04369186 -146.3294378 198.46342667 -144.37084961 196.81518555 C-139.69531825 192.78580671 -135.31629674 188.49579018 -130.94140625 184.14453125 C-130.1116478 183.32047287 -129.28188934 182.49641449 -128.42698669 181.64738464 C-126.68862968 179.91841203 -124.95167394 178.1880295 -123.21606445 176.45629883 C-120.55280252 173.80283821 -117.87906525 171.16022468 -115.20507812 168.51757812 C-113.51236509 166.83138719 -111.82028495 165.14456062 -110.12890625 163.45703125 C-109.32796036 162.66843216 -108.52701447 161.87983307 -107.70179749 161.06733704 C-106.96690598 160.32944443 -106.23201447 159.59155182 -105.47485352 158.83129883 C-104.82613785 158.18622879 -104.17742218 157.54115875 -103.50904846 156.87654114 C-100.74339599 153.43738013 -100.82680735 149.74243667 -100.55102539 145.45288086 C-100.4774733 144.34170395 -100.4039212 143.23052704 -100.32814026 142.0856781 C-100.25208054 140.89080276 -100.17602081 139.69592743 -100.09765625 138.46484375 C-99.92803855 135.93943268 -99.75810715 133.41404266 -99.58789062 130.88867188 C-99.32319501 126.90346394 -99.06074114 122.91816 -98.80493164 118.93237305 C-98.5561954 115.08846156 -98.29646597 111.24541807 -98.03515625 107.40234375 C-97.92410301 105.6069944 -97.92410301 105.6069944 -97.81080627 103.77537537 C-97.73410202 102.66735062 -97.65739777 101.55932587 -97.57836914 100.41772461 C-97.514767 99.44161728 -97.45116486 98.46550995 -97.38563538 97.45982361 C-97 95 -97 95 -95 92 C-94.34 92 -93.68 92 -93 92 C-92.505 90.515 -92.505 90.515 -92 89 C-91.34 89 -90.68 89 -90 89 C-90 88.34 -90 87.68 -90 87 C-89.34 87 -88.68 87 -88 87 C-87.505 85.515 -87.505 85.515 -87 84 C-86.34 84 -85.68 84 -85 84 C-85 83.34 -85 82.68 -85 82 C-84.34 82 -83.68 82 -83 82 C-82.505 80.515 -82.505 80.515 -82 79 C-81.34 79 -80.68 79 -80 79 C-80 78.34 -80 77.68 -80 77 C-79.34 77 -78.68 77 -78 77 C-77.505 75.515 -77.505 75.515 -77 74 C-76.34 74 -75.68 74 -75 74 C-75 73.34 -75 72.68 -75 72 C-74.34 72 -73.68 72 -73 72 C-72.505 70.515 -72.505 70.515 -72 69 C-71.34 69 -70.68 69 -70 69 C-70 68.34 -70 67.68 -70 67 C-69.34 67 -68.68 67 -68 67 C-67.505 65.515 -67.505 65.515 -67 64 C-66.34 64 -65.68 64 -65 64 C-65 63.34 -65 62.68 -65 62 C-64.34 62 -63.68 62 -63 62 C-62.67 61.01 -62.34 60.02 -62 59 C-61.34 59 -60.68 59 -60 59 C-60 58.34 -60 57.68 -60 57 C-59.34 57 -58.68 57 -58 57 C-58 56.34 -58 55.68 -58 55 C-56.34997172 53.64613064 -54.6825613 52.31321858 -53 51 C-52.505 50.01 -52.505 50.01 -52 49 C-51.34 49 -50.68 49 -50 49 C-50 48.34 -50 47.68 -50 47 C-48.625 45.375 -48.625 45.375 -47 44 C-46.34 44 -45.68 44 -45 44 C-45 43.34 -45 42.68 -45 42 C-43.625 40.375 -43.625 40.375 -42 39 C-41.34 39 -40.68 39 -40 39 C-40 38.34 -40 37.68 -40 37 C-38.42578125 35.44921875 -38.42578125 35.44921875 -36.3125 33.6875 C-33.05461686 30.91715219 -29.98569845 28.066393 -27 25 C-25.8392395 23.8394812 -25.8392395 23.8394812 -24.6550293 22.65551758 C-22.16055423 20.16058376 -19.68193161 17.65104981 -17.20703125 15.13671875 C-15.40898809 13.32017993 -13.6108072 11.50377743 -11.8125 9.6875 C-10.89791016 8.75615234 -9.98332031 7.82480469 -9.04101562 6.86523438 C-8.16767578 5.98544922 -7.29433594 5.10566406 -6.39453125 4.19921875 C-5.59893799 3.39315186 -4.80334473 2.58708496 -3.98364258 1.7565918 C-2 0 -2 0 0 0 Z M-50.875 76.1875 C-51.46490471 76.74284172 -52.05480942 77.29818344 -52.66259003 77.8703537 C-66.79452505 91.26471192 -79.13362578 103.18003024 -80.58642578 123.6105957 C-80.77390274 132.15680768 -80.3109627 140.55473134 -79 149 C-69.1081653 149.11233084 -59.31141477 148.81355451 -49.4375 148.1875 C-48.09830996 148.11648604 -46.75911726 148.04552234 -45.41992188 147.97460938 C-44.14568359 147.89404297 -42.87144531 147.81347656 -41.55859375 147.73046875 C-40.41704834 147.66239014 -39.27550293 147.59431152 -38.09936523 147.52416992 C-32.47320345 146.57266387 -29.05092268 143.29917563 -25.11791992 139.3449707 C-24.65877197 138.88611481 -24.19962402 138.42725891 -23.7265625 137.95449829 C-22.22306973 136.44962175 -20.72676985 134.93780574 -19.23046875 133.42578125 C-18.18430153 132.37588051 -17.13768936 131.32642297 -16.09065247 130.27738953 C-13.34573462 127.5248619 -10.60687813 124.76637982 -7.8692627 122.0065918 C-5.07079176 119.18760511 -2.26659937 116.37432248 0.53710938 113.56054688 C6.03033838 108.04591483 11.51717312 102.52497637 17 97 C14.59736086 95.79868043 13.3972103 95.97162784 10.73388672 96.16186523 C9.41274368 96.25207191 9.41274368 96.25207191 8.06491089 96.34410095 C6.63672531 96.45027489 6.63672531 96.45027489 5.1796875 96.55859375 C3.71899338 96.66059837 3.71899338 96.66059837 2.22879028 96.7646637 C-0.88954027 96.98365153 -4.00724429 97.21048826 -7.125 97.4375 C-9.23564055 97.58710479 -11.3463173 97.73619993 -13.45703125 97.88476562 C-18.6384557 98.25059178 -23.81938685 98.62286816 -29 99 C-28.505 98.01 -28.505 98.01 -28 97 C-27.82664635 95.61332894 -27.70485373 94.21999897 -27.61108398 92.82568359 C-27.5211039 91.53457169 -27.5211039 91.53457169 -27.42930603 90.21737671 C-27.36884598 89.28712677 -27.30838593 88.35687683 -27.24609375 87.3984375 C-27.18092056 86.44683746 -27.11574738 85.49523743 -27.04859924 84.51480103 C-26.84088901 81.46845715 -26.63913033 78.42175175 -26.4375 75.375 C-26.29791716 73.31247349 -26.15794816 71.24997308 -26.01757812 69.1875 C-25.67389991 64.12529218 -25.33555965 59.0627522 -25 54 C-31.53991328 54 -45.89079285 71.48824126 -50.875 76.1875 Z " fill="#0F0F0F" transform="translate(399,23)"/>
<path d="M0 0 C0.33885038 2.52019972 0.67120335 5.04098516 1 7.5625 C1.14308594 8.61920898 1.14308594 8.61920898 1.2890625 9.69726562 C1.86666417 14.17367855 2.09489383 18.48661238 2 23 C1.01644531 22.7834375 0.03289062 22.566875 -0.98046875 22.34375 C-27.29126611 16.91944035 -53.67085663 19.98672437 -77 34 C-80.27746844 36.21530869 -83.38197989 38.61908262 -86.4765625 41.08203125 C-89 43 -89 43 -91.2734375 44.07421875 C-93.36123311 44.93929593 -93.36123311 44.93929593 -94 48 C-94.66 48 -95.32 48 -96 48 C-96.25265625 48.56460938 -96.5053125 49.12921875 -96.765625 49.7109375 C-98.16835952 52.31221102 -99.84896049 54.36291035 -101.75 56.625 C-117.85000607 76.59016998 -124.09520163 101.86168632 -121.79785156 127.23242188 C-118.75398879 152.61708875 -106.19544876 175.87313275 -86.1875 191.875 C-63.767373 209.07860905 -37.28783822 214.83964037 -9.4296875 211.53125 C8.59352554 208.84314401 27.43896774 199.96871916 40.125 186.79296875 C42 185 42 185 44 185 C44.26554688 184.41089844 44.53109375 183.82179688 44.8046875 183.21484375 C46.03136826 180.94187646 47.3441234 179.42206649 49.125 177.5625 C60.86343254 164.3354097 67.05674552 148.24219974 70 131 C70.13148438 130.28714844 70.26296875 129.57429687 70.3984375 128.83984375 C72.72145438 114.05415524 70.96838179 98.25755806 65.8046875 84.29296875 C65 82 65 82 65 80 C72.26 79.34 79.52 78.68 87 78 C91.84393167 90.91715112 93.54637113 102.56276804 93.4375 116.3125 C93.43293793 117.32173019 93.43293793 117.32173019 93.42828369 118.35134888 C93.35511416 129.34287548 92.41280937 139.53143608 89 150 C88.68651611 151.00426025 88.68651611 151.00426025 88.36669922 152.02880859 C78.48293527 183.04235704 56.30174849 208.00364912 27.54418945 222.92456055 C-0.58154502 236.84313633 -33.14237178 238.99808175 -63 229.4375 C-94.8224 218.5036856 -119.06167211 196.09148045 -134.02734375 166.234375 C-136.99449138 160.04329377 -139.29574488 153.65404927 -141 147 C-141.25749023 146.01314209 -141.51498047 145.02628418 -141.78027344 144.00952148 C-143.99174243 134.76986731 -144.56263123 125.87826479 -144.5 116.4375 C-144.49757294 115.69465759 -144.49514587 114.95181519 -144.49264526 114.1864624 C-144.28624953 81.493554 -131.25806008 54.1428946 -108.875 30.5 C-91.08306891 13.23317798 -66.7799574 0.73989773 -42 -2 C-41.09378906 -2.10828125 -40.18757813 -2.2165625 -39.25390625 -2.328125 C-26.48930874 -3.67363042 -12.43438655 -3.61313327 0 0 Z " fill="#121212" transform="translate(269,135)"/>
<path d="M0 0 C0.33 0 0.66 0 1 0 C1.02760015 1.81240959 1.04665998 3.62494948 1.0625 5.4375 C1.07410156 6.44683594 1.08570313 7.45617187 1.09765625 8.49609375 C0.9804079 12.70296466 0.5199931 16.82657172 0 21 C1.13824219 20.89042969 2.27648437 20.78085938 3.44921875 20.66796875 C17.74207331 19.3405916 32.05398618 18.34036334 46.375 17.375 C47.37212006 17.30679047 48.36924011 17.23858093 49.39657593 17.16830444 C52.29281633 16.97083013 55.18931448 16.7777089 58.0859375 16.5859375 C58.95095383 16.52665573 59.81597015 16.46737396 60.7071991 16.40629578 C66.15047219 16.05290624 71.54511759 15.94851942 77 16 C75.68 17.32 74.36 18.64 73 20 C73 19.34 73 18.68 73 18 C72.2646553 18.0501123 71.52931061 18.10022461 70.77168274 18.15185547 C63.78585121 18.6271403 56.79974793 19.09816638 49.81332111 19.56460571 C46.22296313 19.80445669 42.63272452 20.04585897 39.04272461 20.29101562 C35.56756832 20.52826893 32.09214372 20.76117435 28.61650658 20.99127197 C26.66856399 21.12130953 24.72091083 21.25566025 22.77326965 21.39013672 C14.83593561 21.91103645 6.95381222 22.10500976 -1 22 C-1.02716824 19.45826023 -1.04691969 16.91681585 -1.0625 14.375 C-1.07087891 13.66214844 -1.07925781 12.94929688 -1.08789062 12.21484375 C-1.10710296 8.02655562 -0.8267327 4.1271538 0 0 Z " fill="#ABABAB" transform="translate(394,78)"/>
<path d="M0 0 C-1.32 1.32 -2.64 2.64 -4 4 C-4 3.34 -4 2.68 -4 2 C-4.8971875 2.06058594 -5.794375 2.12117188 -6.71875 2.18359375 C-10.08075681 2.40934834 -13.44290583 2.63270458 -16.80517578 2.85449219 C-18.25413199 2.95055202 -19.70302711 3.04753848 -21.15185547 3.14550781 C-23.24691222 3.28700717 -25.34217371 3.42505657 -27.4375 3.5625 C-28.69433594 3.64628906 -29.95117188 3.73007813 -31.24609375 3.81640625 C-35.17614866 4.00861497 -39.06615193 4.03049495 -43 4 C-43 3.67 -43 3.34 -43 3 C-13.76382353 -0.24147059 -13.76382353 -0.24147059 0 0 Z " fill="#9E9E9E" transform="translate(471,94)"/>
<path d="M0 0 C0.66 0.33 1.32 0.66 2 1 C-2.03523352 5.81123996 -6.04467233 10.13242719 -11 14 C-11 11 -11 11 -8.59375 8.30078125 C-7.5700032 7.29697757 -6.5383946 6.30114351 -5.5 5.3125 C-4.97535156 4.80138672 -4.45070312 4.29027344 -3.91015625 3.76367188 C-2.61339096 2.50227292 -1.30753883 1.25022788 0 0 Z " fill="#747474" transform="translate(165,161)"/>
<path d="M0 0 C0.66 1.32 1.32 2.64 2 4 C-2.455 7.465 -2.455 7.465 -7 11 C-7.66 10.67 -8.32 10.34 -9 10 C-8.27683594 9.29423828 -8.27683594 9.29423828 -7.5390625 8.57421875 C-6.90742188 7.95160156 -6.27578125 7.32898438 -5.625 6.6875 C-4.68527344 5.76517578 -4.68527344 5.76517578 -3.7265625 4.82421875 C-1.81913393 2.91187472 -1.81913393 2.91187472 0 0 Z " fill="#686868" transform="translate(401,382)"/>
<path d="M0 0 C-1.32 1.32 -2.64 2.64 -4 4 C-4 3.34 -4 2.68 -4 2 C-7.3 2 -10.6 2 -14 2 C-14 1.67 -14 1.34 -14 1 C-9.32798795 -0.20568053 -4.78503708 -0.09382426 0 0 Z " fill="#878787" transform="translate(471,94)"/>
<path d="M0 0 C2.64 0 5.28 0 8 0 C8 0.33 8 0.66 8 1 C5.36 1 2.72 1 0 1 C0 0.67 0 0.34 0 0 Z " fill="#FFFFFF" transform="translate(252,23)"/>
<path d="M0 0 C2.64 0 5.28 0 8 0 C8 0.33 8 0.66 8 1 C5.36 1 2.72 1 0 1 C0 0.67 0 0.34 0 0 Z " fill="#FFFFFF" transform="translate(227,23)"/>
<path d="M0 0 C2.31 0 4.62 0 7 0 C7 0.33 7 0.66 7 1 C4.69 1 2.38 1 0 1 C0 0.67 0 0.34 0 0 Z " fill="#FFFFFF" transform="translate(222,478)"/>
<path d="M0 0 C2.97 0.495 2.97 0.495 6 1 C6 1.33 6 1.66 6 2 C4.02 2 2.04 2 0 2 C0 1.34 0 0.68 0 0 Z " fill="#FFFFFF" transform="translate(395,96)"/>
<path d="M0 0 C1.98 0 3.96 0 6 0 C6 0.33 6 0.66 6 1 C4.02 1 2.04 1 0 1 C0 0.67 0 0.34 0 0 Z " fill="#FFFFFF" transform="translate(258,478)"/>
<path d="M0 0 C0.33 0 0.66 0 1 0 C1 1.65 1 3.3 1 5 C0.67 5 0.34 5 0 5 C0 3.35 0 1.7 0 0 Z " fill="#FFFFFF" transform="translate(471,234)"/>
<path d="M0 0 C1.65 0 3.3 0 5 0 C5 0.33 5 0.66 5 1 C3.35 1 1.7 1 0 1 C0 0.67 0 0.34 0 0 Z " fill="#FFFFFF" transform="translate(358,168)"/>
<path d="M0 0 C1.65 0 3.3 0 5 0 C5 0.33 5 0.66 5 1 C3.35 1 1.7 1 0 1 C0 0.67 0 0.34 0 0 Z " fill="#FFFFFF" transform="translate(427,95)"/>
<path d="M0 0 C3 1 3 1 3 1 Z " fill="#FFFFFF" transform="translate(252,131)"/>
<path d="M0 0 C3 1 3 1 3 1 Z " fill="#FFFFFF" transform="translate(300,30)"/>
<path d="" fill="#FFFFFF" transform="translate(0,0)"/>
<path d="" fill="#FFFFFF" transform="translate(0,0)"/>
<path d="" fill="#FFFFFF" transform="translate(0,0)"/>
<path d="M0 0 C2 1 2 1 2 1 Z " fill="#FFFFFF" transform="translate(232,131)"/>
<path d="M0 0 C2 1 2 1 2 1 Z " fill="#FFFFFF" transform="translate(444,94)"/>
<path d="M0 0 C2 1 2 1 2 1 Z " fill="#FFFFFF" transform="translate(185,30)"/>
<path d="" fill="#FFFFFF" transform="translate(0,0)"/>
<path d="" fill="#FFFFFF" transform="translate(0,0)"/>
<path d="" fill="#FFFFFF" transform="translate(0,0)"/>
<path d="" fill="#FFFFFF" transform="translate(0,0)"/>
<path d="" fill="#FFFFFF" transform="translate(0,0)"/>
<path d="" fill="#FFFFFF" transform="translate(0,0)"/>
<path d="" fill="#FFFFFF" transform="translate(0,0)"/>
<path d="" fill="#FFFFFF" transform="translate(0,0)"/>
<path d="" fill="#FFFFFF" transform="translate(0,0)"/>
<path d="" fill="#FFFFFF" transform="translate(0,0)"/>
<path d="" fill="#FFFFFF" transform="translate(0,0)"/>
<path d="" fill="#FFFFFF" transform="translate(0,0)"/>
<path d="" fill="#FFFFFF" transform="translate(0,0)"/>
<path d="" fill="#FFFFFF" transform="translate(0,0)"/>
<path d="" fill="#FFFFFF" transform="translate(0,0)"/>
<path d="" fill="#FFFFFF" transform="translate(0,0)"/>
<path d="" fill="#FFFFFF" transform="translate(0,0)"/>
<path d="" fill="#FFFFFF" transform="translate(0,0)"/>
<path d="" fill="#FFFFFF" transform="translate(0,0)"/>
<path d="" fill="#FFFFFF" transform="translate(0,0)"/>
<path d="" fill="#FFFFFF" transform="translate(0,0)"/>
<path d="" fill="#FFFFFF" transform="translate(0,0)"/>
<path d="" fill="#FFFFFF" transform="translate(0,0)"/>
<path d="" fill="#FFFFFF" transform="translate(0,0)"/>
<path d="" fill="#FFFFFF" transform="translate(0,0)"/>
<path d="" fill="#FFFFFF" transform="translate(0,0)"/>
<path d="" fill="#FFFFFF" transform="translate(0,0)"/>
<path d="" fill="#FFFFFF" transform="translate(0,0)"/>
<path d="" fill="#FFFFFF" transform="translate(0,0)"/>
<path d="" fill="#FFFFFF" transform="translate(0,0)"/>
<path d="" fill="#FFFFFF" transform="translate(0,0)"/>
<path d="" fill="#FFFFFF" transform="translate(0,0)"/>
<path d="" fill="#FFFFFF" transform="translate(0,0)"/>
<path d="" fill="#FFFFFF" transform="translate(0,0)"/>
<path d="" fill="#FFFFFF" transform="translate(0,0)"/>
</svg>
