<?xml version="1.0" encoding="UTF-8"?>
<svg version="1.1" xmlns="http://www.w3.org/2000/svg" width="860" height="905">
<path d="M0 0 C283.8 0 567.6 0 860 0 C860 298.65 860 597.3 860 905 C576.2 905 292.4 905 0 905 C0 606.35 0 307.7 0 0 Z " fill="#F6F6F6" transform="translate(0,0)"/>
<path d="M0 0 C1.29042206 -0.00167175 2.58084412 -0.00334351 3.91036987 -0.00506592 C46.47314388 -0.00837498 46.47314388 -0.00837498 66.90698242 4.79931641 C69.93531373 5.47146978 72.98706665 5.8576896 76.0625 6.25 C80.8585957 6.90728078 85.30475653 7.82454047 89.9375 9.25 C91.476888 9.55346358 93.01887311 9.84389223 94.5625 10.125 C100.83773213 11.32581603 106.86487819 13.2892475 112.9375 15.25 C112.9375 18.25 112.9375 18.25 110.59375 20.921875 C109.54991233 21.95630419 108.4972676 22.98189712 107.4375 24 C106.88940674 24.53713623 106.34131348 25.07427246 105.77661133 25.62768555 C102.20554515 29.10230725 98.55469011 32.45772691 94.72265625 35.64453125 C92.86930849 37.23664047 92.86930849 37.23664047 91.24609375 39.26171875 C89.55481084 41.2590807 88.09933342 42.77289703 85.9375 44.25 C83.7409668 44.39013672 83.7409668 44.39013672 81.32421875 44.0546875 C80.43863281 43.93577148 79.55304688 43.81685547 78.640625 43.69433594 C75.3199633 43.14849017 72.01595941 42.55271463 68.71630859 41.89160156 C46.62124705 37.48674475 24.78735668 35.97629685 2.3125 36 C0.92970856 36.00102722 0.92970856 36.00102722 -0.48101807 36.0020752 C-25.13032757 35.95102965 -25.13032757 35.95102965 -49.5 39.1875 C-51.36835799 39.55145743 -53.23684642 39.91474593 -55.10546875 40.27734375 C-55.96833496 40.44862793 -56.83120117 40.61991211 -57.72021484 40.79638672 C-60.57466195 41.34918667 -63.4388638 41.80881934 -66.3125 42.25 C-98.25409215 47.54317813 -129.35802223 58.57990205 -158.14453125 73.265625 C-160.56587598 74.50080012 -162.99308104 75.69221383 -165.44921875 76.859375 C-195.42359216 91.19031803 -225.1260011 112.5270436 -248.27734375 136.46484375 C-250.10796715 138.29546715 -252.02149857 139.95624439 -254 141.625 C-257.91463186 144.99784071 -261.30565126 148.71283754 -264.71484375 152.58984375 C-267.09889376 155.29123819 -269.54624705 157.92442758 -272 160.5625 C-277.40242712 166.51348126 -282.28137566 172.80002437 -287.0625 179.25 C-287.5668457 179.92450195 -288.07119141 180.59900391 -288.59082031 181.29394531 C-296.75197155 192.23674274 -304.20141394 203.44934577 -311.0625 215.25 C-311.48096191 215.96591309 -311.89942383 216.68182617 -312.33056641 217.41943359 C-317.59499665 226.48378422 -322.38561371 235.74584444 -326.9375 245.1875 C-327.38996094 246.12231201 -327.84242188 247.05712402 -328.30859375 248.02026367 C-330.92125709 253.52489187 -333.18073161 259.06063829 -335.1784668 264.81762695 C-336.01200621 267.11106887 -336.95828977 269.29467727 -338 271.5 C-341.48993784 279.15579248 -344.22008925 287.44385028 -346.1875 295.625 C-346.84231695 298.33781307 -347.57782693 300.8180945 -348.49609375 303.4375 C-349.98732487 307.87067078 -351.07425275 312.29399291 -352 316.875 C-352.2482251 318.09098877 -352.2482251 318.09098877 -352.50146484 319.33154297 C-353.03217579 321.96909135 -353.54893146 324.60906338 -354.0625 327.25 C-354.23958496 328.14589844 -354.41666992 329.04179687 -354.59912109 329.96484375 C-359.1838187 353.45048818 -360.23673659 376.44056425 -360.25 400.3125 C-360.25108765 401.37394226 -360.25217529 402.43538452 -360.2532959 403.5289917 C-360.25123023 421.35333402 -359.61612631 438.69510672 -356.58837891 456.28857422 C-356.18450104 458.64247869 -355.79654605 460.99863713 -355.41015625 463.35546875 C-354.23411585 470.39673562 -352.96113892 477.29367131 -350.73876953 484.09472656 C-350.06333655 486.2473339 -349.5677277 488.3777356 -349.109375 490.5859375 C-347.85873877 496.45054649 -346.080522 502.14896274 -344.3125 507.875 C-343.95833008 509.02347412 -343.60416016 510.17194824 -343.23925781 511.35522461 C-340.58047803 519.85241149 -337.62505864 528.09024742 -334.0625 536.25 C-333.69382812 537.10207031 -333.32515625 537.95414063 -332.9453125 538.83203125 C-332.32287799 540.24819038 -331.69330771 541.66126674 -331.05224609 543.0690918 C-330.09188721 545.18524521 -329.15406986 547.31018207 -328.21875 549.4375 C-316.18216831 576.50183962 -300.71356802 603.1619028 -281.30859375 625.640625 C-279.22573099 628.06036817 -277.26443896 630.53694684 -275.3125 633.0625 C-263.2440455 648.202485 -249.02890544 662.95987887 -234.0625 675.25 C-233.53140625 675.6948877 -233.0003125 676.13977539 -232.453125 676.59814453 C-202.5597601 701.62904703 -168.3875896 723.20293635 -131.72216797 736.77368164 C-131.00174316 737.04043701 -130.28131836 737.30719238 -129.5390625 737.58203125 C-128.80204102 737.8548291 -128.06501953 738.12762695 -127.30566406 738.40869141 C-125.09939579 739.23616207 -122.90473632 740.08930074 -120.7109375 740.94921875 C-101.89363462 748.23326971 -82.09239552 753.68224636 -62.125 756.6875 C-57.23857718 757.43238153 -52.35792368 758.18092754 -47.49609375 759.07421875 C-13.24520967 765.33043217 26.23519047 764.77369036 60.30078125 757.96484375 C63.69471838 757.29772184 67.07433228 756.78399872 70.5 756.3125 C78.11474662 755.15475731 85.510505 753.25087993 92.9375 751.25 C93.71593262 751.04391113 94.49436523 750.83782227 95.29638672 750.62548828 C113.26214324 745.83772339 131.01314364 739.98309968 147.9375 732.25 C149.29067121 731.6643612 150.64472669 731.08075761 152 730.5 C185.32275289 715.62583002 217.4986662 695.67206367 244.2421875 670.734375 C246.38267791 668.76140123 248.55045697 666.84998608 250.75390625 664.94921875 C255.01035099 661.23783096 259.01954646 657.31611815 263 653.3125 C263.66837891 652.64798828 264.33675781 651.98347656 265.02539062 651.29882812 C295.1184189 621.14731 317.81557831 584.40220822 335.67382812 545.96948242 C336.5070814 544.17628144 337.34934734 542.38723711 338.20117188 540.6027832 C341.61213951 533.34254125 344.29073335 525.92316085 346.8125 518.3125 C347.13448868 517.34298401 347.13448868 517.34298401 347.46298218 516.35388184 C352.0416705 502.50003507 355.75057022 488.49004439 358.9375 474.25 C359.18371094 473.16799316 359.42992187 472.08598633 359.68359375 470.97119141 C369.31363718 427.88976063 370.99337909 376.33898382 360.625 333.19140625 C359.89251627 330.05754122 359.36951291 326.92956345 358.875 323.75 C358.23972523 319.73015208 357.25377763 316.10481307 355.9375 312.25 C355.59006904 309.17771765 355.5453065 307.78196459 357.40625 305.2578125 C358.41171875 304.32582031 358.41171875 304.32582031 359.4375 303.375 C360.16839844 302.68792969 360.89929688 302.00085938 361.65234375 301.29296875 C364.4107861 298.82687414 367.18677076 296.38455364 369.99609375 293.9765625 C371.94226744 292.24576015 373.75139193 290.43331493 375.5625 288.5625 C378.46142469 285.60359756 381.40503691 283.40394091 384.9375 281.25 C388.82701779 289.39946585 390.52199855 298.16382385 392.41015625 306.94921875 C392.78027696 308.56404169 393.18728604 310.17063997 393.62109375 311.76953125 C395.63926587 319.24617926 396.85627304 326.73796229 397.93530273 334.39575195 C398.11041382 335.63844849 398.11041382 335.63844849 398.2890625 336.90625 C398.39041504 337.64681641 398.49176758 338.38738281 398.59619141 339.15039062 C398.89586276 341.21943445 398.89586276 341.21943445 399.4309082 343.07958984 C405.88109366 370.7143603 404.86538718 404.39015444 401.15917969 432.30712891 C400.80805845 435.38446682 400.73679236 438.46848198 400.625 441.5625 C399.48994291 461.33638939 395.20797778 481.20367883 389.9375 500.25 C389.49857422 501.92255859 389.49857422 501.92255859 389.05078125 503.62890625 C386.83394851 511.80410391 384.1536126 519.83320638 381.5 527.875 C381.12842773 529.00752197 380.75685547 530.14004395 380.37402344 531.30688477 C377.882952 538.77304069 375.07449827 546.03227539 371.9375 553.25 C371.61096436 554.00619629 371.28442871 554.76239258 370.94799805 555.54150391 C363.31667268 572.96018737 355.06703917 590.14031942 344.9375 606.25 C344.38980957 607.13437744 344.38980957 607.13437744 343.83105469 608.03662109 C325.23454443 638.03287554 302.37659893 667.69961743 275.9375 691.25 C275.2775 691.25 274.6175 691.25 273.9375 691.25 C273.9375 691.91 273.9375 692.57 273.9375 693.25 C272.36463316 694.66438406 270.72610004 696.00604401 269.0625 697.3125 C265.38859201 700.24232536 261.85469432 703.21350394 258.4375 706.4375 C246.44684855 717.34155823 232.61723602 726.59007409 218.9375 735.25 C217.87088135 735.92530762 217.87088135 735.92530762 216.78271484 736.61425781 C202.29016812 745.70676509 187.19267866 753.53465199 171.9375 761.25 C171.00115723 761.72840332 170.06481445 762.20680664 169.10009766 762.69970703 C164.98147457 764.7899713 160.94900812 766.77363481 156.5625 768.25 C152.71616985 769.5894912 148.98560567 771.06486209 145.25 772.6875 C138.74694513 775.41994579 132.09555357 777.52453001 125.34130859 779.53027344 C122.70794599 780.31873098 120.08289699 781.13225253 117.45703125 781.9453125 C104.10549119 786.02346772 90.74470372 789.20380366 77.00927734 791.69140625 C74.02952858 792.23326487 71.05613125 792.80307692 68.08203125 793.375 C29.69370319 800.52503976 -16.44049693 802.84026437 -54.88549805 794.68261719 C-57.4243404 794.17809452 -59.9165748 793.94890485 -62.5 793.8125 C-67.2384627 793.43527601 -71.46796039 792.40105406 -76.015625 791.05859375 C-79.48882201 790.1368607 -82.95737251 789.53860848 -86.5 788.9375 C-95.44281385 787.36854748 -104.00477981 784.73395494 -112.65234375 782.00537109 C-114.9196471 781.29477177 -117.19216613 780.60596749 -119.46875 779.92578125 C-126.57639038 777.7868964 -133.4644894 775.38520823 -140.28125 772.42578125 C-142.95202524 771.29670351 -145.63513621 770.32186469 -148.375 769.375 C-155.4957093 766.82460269 -162.26615459 763.5477341 -169.0625 760.25 C-169.71412109 759.93514648 -170.36574219 759.62029297 -171.03710938 759.29589844 C-213.85840663 738.51932628 -250.92297346 710.36945414 -284.5625 676.875 C-285.67467896 675.76983032 -285.67467896 675.76983032 -286.80932617 674.64233398 C-291.43087234 670.00720272 -295.82318529 665.23633597 -300.0625 660.25 C-300.60616211 659.61304199 -301.14982422 658.97608398 -301.70996094 658.31982422 C-320.42515241 636.23678895 -336.00895185 612.51555621 -350.0625 587.25 C-350.44003418 586.57759277 -350.81756836 585.90518555 -351.20654297 585.21240234 C-359.82223951 569.82231594 -367.22962589 553.71346608 -372.80859375 536.9765625 C-373.6476605 534.48288749 -374.54040282 532.00666492 -375.484375 529.55078125 C-384.52541205 505.64566633 -390.69451457 479.94241575 -393.77441406 454.59130859 C-394.118648 451.79367857 -394.5047734 449.00299613 -394.89990234 446.2121582 C-396.80087527 431.59015844 -397.27362937 416.91829092 -397.25 402.1875 C-397.24906342 401.41886627 -397.24812683 400.65023254 -397.24716187 399.85830688 C-397.05066632 324.35271386 -377.26064166 250.03553979 -336.0625 186.25 C-335.43915771 185.27522705 -335.43915771 185.27522705 -334.80322266 184.28076172 C-324.16973298 167.71535071 -312.59872886 151.57749067 -299.0625 137.25 C-297.88945848 135.92227168 -296.7226342 134.58902111 -295.5625 133.25 C-286.36619681 122.72487318 -277.04137569 112.30158375 -266.375 103.2265625 C-264.54066646 101.65870309 -262.73538617 100.06985345 -260.9375 98.4609375 C-235.93421285 76.22000408 -207.86542586 58.00031783 -178.3125 42.4375 C-177.29510742 41.89794678 -176.27771484 41.35839355 -175.22949219 40.80249023 C-168.94570156 37.538427 -162.62796022 34.81658709 -155.96386719 32.41918945 C-153.1111691 31.26961262 -150.67127649 29.86692646 -148.0625 28.25 C-128.80944895 20.19704115 -108.19759348 13.17436018 -87.59765625 9.74609375 C-85.047101 9.24698664 -82.65960866 8.54758241 -80.1875 7.75 C-75.43638623 6.26295344 -70.73345648 5.47544914 -65.80859375 4.78515625 C-63.04085825 4.38976546 -60.29104987 3.9616592 -57.53515625 3.49609375 C-56.73392334 3.36267578 -55.93269043 3.22925781 -55.10717773 3.09179688 C-53.56287891 2.8337645 -52.01932492 2.57120581 -50.47680664 2.30273438 C-33.8233916 -0.4291701 -16.81977534 0.01146279 0 0 Z " fill="#020202" transform="translate(427.0625,44.75)"/>
<path d="M0 0 C0.37281086 10.43456173 -0.65010806 20.72221378 -1.59500122 31.10195923 C-3.06182495 47.26611692 -4.36744925 63.42060202 -5.27636719 79.62548828 C-5.94404678 91.44638455 -6.77177082 103.25363421 -7.625 115.0625 C-7.69357208 116.01283112 -7.76214417 116.96316223 -7.83279419 117.94229126 C-8.21942206 123.29504021 -8.60858095 128.64759936 -9 134 C-8.14438477 133.93006836 -7.28876953 133.86013672 -6.40722656 133.78808594 C20.30895658 131.6338902 47.04766771 129.99932816 73.80638409 128.48563576 C76.72803188 128.3200764 79.64958424 128.15286681 82.57113075 127.98553085 C84.59224932 127.87060463 86.61352864 127.75851624 88.6348114 127.64651489 C95.12404623 127.27583778 101.54468249 126.74979874 108 126 C109.53141853 125.93267376 111.06480601 125.89027406 112.59765625 125.90234375 C113.33564453 125.90556641 114.07363281 125.90878906 114.83398438 125.91210938 C115.93709961 125.92467773 115.93709961 125.92467773 117.0625 125.9375 C117.83271484 125.94201172 118.60292969 125.94652344 119.39648438 125.95117188 C121.2643578 125.96277357 123.13219026 125.98070001 125 126 C123.72116387 128.80145062 122.39375082 130.85729595 120.22223949 133.03502941 C119.65354741 133.61017039 119.08485533 134.18531136 118.49893016 134.77788085 C117.56144772 135.71071748 117.56144772 135.71071748 116.60502625 136.66239929 C115.94122619 137.33073046 115.27742613 137.99906163 114.59351093 138.68764526 C112.3635695 140.93026704 110.12651896 143.16565849 107.8894043 145.40112305 C106.29092907 147.00558114 104.69286562 148.61044957 103.09518433 150.21569824 C98.75083436 154.57773744 94.39999308 158.93324604 90.04742789 163.28708625 C86.4174421 166.91896936 82.79018994 170.55357691 79.16280299 174.18805534 C71.09643201 182.26978722 63.02538141 190.34681384 54.95065346 198.42019417 C54.4662176 198.90455011 53.98178175 199.38890606 53.48266602 199.88793945 C52.99763836 200.37288534 52.51261071 200.85783124 52.01288525 201.35747246 C44.14814601 209.22139835 36.29343659 217.09525842 28.44321146 224.97367074 C20.38351275 233.06208027 12.31622369 241.14283336 4.2414735 249.21622115 C-0.29220247 253.74938631 -4.8226944 258.28562719 -9.34554482 262.82959557 C-13.59744146 267.10080171 -17.85876309 271.36237042 -22.12761307 275.61663055 C-23.6948118 277.18173121 -25.25858313 278.75027231 -26.81869698 280.32243538 C-28.94472783 282.46382215 -31.08264048 284.59258566 -33.22407532 286.71855164 C-33.84237144 287.34713489 -34.46066757 287.97571814 -35.09769994 288.62334937 C-38.25803771 291.73326784 -40.37118059 293.74724778 -45 294 C-45.98530197 294.08535507 -46.97060394 294.17071014 -47.98576355 294.25865173 C-49.09285172 294.32145828 -50.19993988 294.38426483 -51.34057617 294.44897461 C-52.6034697 294.5225267 -53.86636322 294.5960788 -55.16752625 294.67185974 C-55.83870672 294.70932249 -56.5098872 294.74678524 -57.20140648 294.78538322 C-59.32828011 294.90431837 -61.45483838 295.0279193 -63.58137512 295.15272522 C-69.62671933 295.5065878 -75.67257458 295.85140283 -81.71850586 296.19506836 C-86.13943877 296.44698184 -90.56008873 296.70340603 -94.98046875 296.96484375 C-95.69801205 297.00725567 -96.41555534 297.04966759 -97.15484238 297.09336472 C-106.41937053 297.64752717 -115.64143655 298.28859754 -124.83232117 299.6101532 C-127.68381231 299.95693365 -129.79154544 299.91469982 -132.7150116 299.59965515 C-140.19673919 299.01572816 -145.13056272 299.93756695 -151.13056946 304.645401 C-156.57377226 309.38244849 -161.64265716 314.48747314 -166.67210007 319.65461826 C-169.23266685 322.27112552 -171.83427985 324.84630095 -174.42993164 327.42791748 C-178.77798662 331.76520889 -183.09281229 336.13350409 -187.38867188 340.52246094 C-192.33983871 345.58018283 -197.33901936 350.58618221 -202.36711407 355.56734967 C-207.22697269 360.3839457 -212.05203298 365.23401211 -216.86196899 370.10042572 C-218.899136 372.16049072 -220.9472974 374.20857806 -223.00546265 376.24765778 C-225.88210461 379.10148671 -228.70594674 382.00267497 -231.52734375 384.91113281 C-232.37601013 385.7417926 -233.22467651 386.57245239 -234.09906006 387.42828369 C-239.46102651 393.06695051 -240.93897325 397.14404763 -240.92042542 404.94330978 C-241.12702578 412.87942817 -244.6608415 419.64043849 -250.08203125 425.28125 C-257.68437499 432.09394093 -265.44595059 434.44635908 -275.5546875 434.18359375 C-284.62044295 433.50293799 -291.49685157 429.91230485 -297.75 423.3125 C-304.26427016 415.27773658 -305.90622109 407.03912301 -305.45703125 396.85546875 C-304.47129709 388.53991648 -300.09249081 381.35880413 -293.625 376.05078125 C-292.75875 375.47714844 -291.8925 374.90351563 -291 374.3125 C-290.154375 373.73113281 -289.30875 373.14976562 -288.4375 372.55078125 C-285.07821158 371.03528409 -283.02698063 370.77452339 -279.42384338 370.44799805 C-271.92235522 369.23472851 -268.03097655 365.530113 -262.78100586 360.28125 C-261.83797607 359.37662521 -260.89494629 358.47200043 -259.92333984 357.53996277 C-257.35598586 355.07307137 -254.82145526 352.57494784 -252.29494548 350.06631088 C-250.70732365 348.49254553 -249.11316718 346.92571372 -247.51663399 345.36099243 C-241.92362819 339.87828123 -236.35852881 334.36884157 -230.81665039 328.83447266 C-225.68858104 323.7148762 -220.50233225 318.66006192 -215.28480428 313.63181496 C-210.77832547 309.28302763 -206.31851678 304.88971576 -201.89041811 300.46115685 C-199.25754964 297.82963321 -196.61071133 295.21848494 -193.91441154 292.65185547 C-182.60006571 281.84617306 -174.03494735 272.56232387 -173.07750607 256.23649597 C-173.03164653 254.16324885 -173.01701487 252.08919574 -173.02482986 250.0154562 C-173.03177613 245.84027343 -172.81757922 241.68104815 -172.62046343 237.51130193 C-172.20609135 228.73525812 -171.96958447 220.04032783 -172.22996658 211.25628453 C-172.91705603 184.95327783 -170.93226912 164.25262359 -152.33935547 144.51782227 C-146.48228008 138.41643867 -140.35818918 132.63290304 -134.14005804 126.90310407 C-129.41185922 122.49236026 -124.83252287 117.93146157 -120.23342896 113.38694763 C-112.53056304 105.81415028 -104.74562761 98.33702642 -96.88525391 90.92797852 C-88.81100272 83.31686445 -80.79794857 75.64872077 -72.85400391 67.90161133 C-72.36034434 67.42021985 -71.86668478 66.93882838 -71.35806583 66.44284929 C-69.37335365 64.50696632 -67.38909774 62.5706173 -65.40543037 60.63366375 C-50.29800498 45.88204476 -35.13234494 31.19103308 -19.81568146 16.65650368 C-18.21856658 15.14064032 -16.62294669 13.62320014 -15.02889633 12.10411453 C-12.86271716 10.04143644 -10.69034934 7.98552945 -8.51559448 5.93190002 C-7.87825123 5.32351919 -7.24090797 4.71513836 -6.58425128 4.08832175 C-2.22979356 0 -2.22979356 0 0 0 Z " fill="#020202" transform="translate(703,42)"/>
<path d="M0 0 C1.83455366 0.00999801 3.6691077 0.019926 5.50366211 0.02978516 C20.82099147 0.15250173 36.19604865 0.29636445 51.0625 4.3125 C51.57054717 8.79079165 52.06747554 13.27025165 52.5625 17.75 C52.70558594 19.01005859 52.84867188 20.27011719 52.99609375 21.56835938 C53.72279548 28.19518709 54.23659324 34.64617958 54.0625 41.3125 C43.38929617 39.65092065 43.38929617 39.65092065 39.08666992 38.5534668 C29.15292581 36.0214278 19.55118252 35.85280275 9.34887695 35.92138672 C6.50097921 35.93749446 3.654496 35.92144537 0.80664062 35.90234375 C-9.20497683 35.89089648 -18.25503027 36.5141803 -27.9375 39.3125 C-29.43342957 39.65553346 -30.93195125 39.987596 -32.43359375 40.3046875 C-68.06326788 48.20334583 -103.13039282 68.35186926 -125.9375 97.3125 C-126.36208496 97.84117676 -126.78666992 98.36985352 -127.22412109 98.91455078 C-140.27671318 115.26008629 -150.12199298 133.3698734 -157.1875 153.0625 C-157.4340332 153.74771729 -157.68056641 154.43293457 -157.93457031 155.13891602 C-164.02040966 172.66200876 -165.23219126 191.46623771 -165.1875 209.875 C-165.18443848 211.19314697 -165.18137695 212.51129395 -165.17822266 213.86938477 C-165.05970738 231.58420326 -165.05970738 231.58420326 -160.84375 248.63671875 C-160.03514442 251.02419644 -159.63436202 253.00477384 -159.4375 255.5 C-158.9150103 259.48398397 -157.80894285 262.27048692 -156.08154297 265.84936523 C-154.99301973 268.19296553 -154.0454051 270.54863151 -153.12109375 272.9609375 C-147.35336894 287.47724792 -139.52626782 301.01112024 -129.9375 313.3125 C-129.256875 314.21484375 -128.57625 315.1171875 -127.875 316.046875 C-104.28445186 346.24992527 -70.20305747 367.49601445 -32.9375 376.3125 C-32.30779297 376.48168945 -31.67808594 376.65087891 -31.02929688 376.82519531 C4.35455287 386.18765046 45.26692211 381.06626702 78.0625 365.3125 C79.24585938 364.75820313 80.42921875 364.20390625 81.6484375 363.6328125 C95.24625178 357.14363149 107.59131865 349.10072557 119.0625 339.3125 C119.85785156 338.63960937 120.65320313 337.96671875 121.47265625 337.2734375 C139.19673788 321.82455493 152.26338584 303.09782797 163.0625 282.3125 C163.55234375 281.37535156 164.0421875 280.43820312 164.546875 279.47265625 C168.45965786 271.4417902 170.72861304 262.9015898 173.0625 254.3125 C173.25231445 253.63493652 173.44212891 252.95737305 173.63769531 252.25927734 C182.30503832 221.21015279 181.45343025 187.99878523 172.1484375 157.23046875 C171.07843122 153.60553123 170.50385404 150.06400932 170.0625 146.3125 C193.64488484 142.73084791 193.64488484 142.73084791 205.0625 143.3125 C217.57849836 171.8838569 218.15354336 204.95452366 214.25 235.4375 C214.08483887 236.72970459 213.91967773 238.02190918 213.74951172 239.35327148 C212.15624437 250.95504564 209.36838537 261.9192473 205.625 273 C205.33818359 273.87205078 205.05136719 274.74410156 204.75585938 275.64257812 C203.07976502 280.6484635 201.19744721 285.48075288 198.99536133 290.27905273 C198.02219643 292.40035355 197.10233198 294.54049182 196.1875 296.6875 C176.0548208 341.67629467 135.49729722 382.37959722 89.1875 400.0625 C87.58841797 400.64257812 87.58841797 400.64257812 85.95703125 401.234375 C83.50648225 402.14713009 81.21987742 403.16510367 78.875 404.3125 C46.4398605 419.01246231 1.52534899 420.79842416 -32.9375 413.3125 C-34.76087891 412.97025391 -34.76087891 412.97025391 -36.62109375 412.62109375 C-63.18242583 407.43911703 -91.52620746 395.98582071 -112.9375 379.3125 C-113.96875 378.54292969 -115 377.77335937 -116.0625 376.98046875 C-123.01535405 371.76836427 -129.64066634 366.31120524 -135.9375 360.3125 C-136.78465576 359.50619141 -136.78465576 359.50619141 -137.64892578 358.68359375 C-155.53690327 341.54428391 -169.3544376 322.17703918 -180.9375 300.3125 C-181.53860596 299.19343262 -181.53860596 299.19343262 -182.15185547 298.05175781 C-204.14526274 255.82916568 -208.96323548 198.64568075 -194.9375 153.3125 C-194.54789504 151.91652674 -194.16267245 150.51932488 -193.78125 149.12109375 C-185.08823243 117.61994353 -167.54012642 88.97758767 -145.5 65.0625 C-144.61296387 64.09558228 -144.61296387 64.09558228 -143.70800781 63.10913086 C-143.1456543 62.51108643 -142.58330078 61.91304199 -142.00390625 61.296875 C-141.50834229 60.76803711 -141.01277832 60.23919922 -140.50219727 59.69433594 C-138.76821284 58.16299691 -137.03987796 57.25824367 -134.9375 56.3125 C-134.9375 55.6525 -134.9375 54.9925 -134.9375 54.3125 C-131.97067037 51.55376463 -128.75071681 49.10107647 -125.56689453 46.59765625 C-123.98196535 45.34757126 -122.41067348 44.08025666 -120.83984375 42.8125 C-112.96892111 36.52535308 -104.71533819 31.24082142 -95.9375 26.3125 C-95.24575684 25.92143066 -94.55401367 25.53036133 -93.84130859 25.12744141 C-85.42873881 20.40819494 -77.18663325 16.35712991 -67.98828125 13.3828125 C-64.89354712 12.37104737 -64.89354712 12.37104737 -61.95703125 10.80859375 C-53.94563446 6.83916947 -44.87267513 5.11047008 -36.07397461 3.84814453 C-33.07140272 3.3353678 -30.24618632 2.58434709 -27.3125 1.7734375 C-18.25462828 -0.33884715 -9.24501134 -0.09847292 0 0 Z " fill="#020202" transform="translate(422.9375,235.6875)"/>
<path d="M0 0 C-0.11858711 4.75072916 -0.24285748 9.50126358 -0.37231445 14.25170898 C-0.41553083 15.86657711 -0.45721489 17.48148702 -0.49731445 19.09643555 C-0.55534048 21.42249117 -0.61894029 23.74833904 -0.68359375 26.07421875 C-0.70030624 26.79212082 -0.71701874 27.51002289 -0.73423767 28.24967957 C-0.84281898 31.95336842 -1.23345707 35.3829904 -2 39 C-2.18629982 41.12248115 -2.33826598 43.24812155 -2.46484375 45.375 C-2.58182617 47.22544922 -2.58182617 47.22544922 -2.70117188 49.11328125 C-2.85681649 51.67305633 -3.01051202 54.23295079 -3.16210938 56.79296875 C-3.68223875 64.95434837 -4.60783619 72.94090896 -6 81 C-2.56233349 80.73125891 0.8750928 80.45953634 4.3125 80.1875 C5.41174805 80.10129395 6.51099609 80.01508789 7.64355469 79.92626953 C14.33874562 79.39459802 21.02750044 78.8207143 27.71484375 78.19921875 C43.51559673 76.74377322 59.1109598 75.50173742 75 76 C73.62995158 79.01195333 72.04638698 81.29135559 69.84692383 83.75695801 C69.19596237 84.48870743 68.54500092 85.22045685 67.87431335 85.97438049 C67.15911026 86.76722946 66.44390717 87.56007843 65.70703125 88.37695312 C64.95134354 89.2196727 64.19565582 90.06239227 63.41706848 90.9306488 C56.33578389 98.78421478 49.10087906 106.49217918 41.81066895 114.15145111 C36.93538775 119.27994981 32.12213557 124.44511812 27.43603516 129.74755859 C8.88219048 150.69044986 -8.35908825 168.98286735 -37.61962891 171.34484863 C-47.30421702 171.83522594 -56.94822064 171.76924605 -66.62695312 171.20959473 C-70.94514399 170.97274929 -74.75506157 171.21237573 -79 172 C-80.53905311 172.07140175 -82.08042629 172.108902 -83.62109375 172.09765625 C-84.41064453 172.09443359 -85.20019531 172.09121094 -86.01367188 172.08789062 C-86.81353516 172.07951172 -87.61339844 172.07113281 -88.4375 172.0625 C-89.26443359 172.05798828 -90.09136719 172.05347656 -90.94335938 172.04882812 C-92.96227146 172.03715811 -94.98114574 172.01922718 -97 172 C-96.86055132 167.79142976 -96.71231417 163.583213 -96.5625 159.375 C-96.50352539 157.59029297 -96.50352539 157.59029297 -96.44335938 155.76953125 C-96.40146484 154.61582031 -96.35957031 153.46210938 -96.31640625 152.2734375 C-96.27974854 151.21560059 -96.24309082 150.15776367 -96.20532227 149.06787109 C-96 146 -96 146 -95.43527222 143.42272949 C-94.96892481 139.75564266 -95.21854212 136.58567388 -95.57901955 132.9255867 C-97.42442968 112.67894927 -96.67313378 93.70684225 -83.35107422 77.45996094 C-73.74935496 66.23209523 -62.7616692 56.20021347 -51.81261218 46.31427312 C-46.31261027 41.33805977 -40.96101719 36.21227976 -35.61129558 31.07563376 C-27.30832047 23.11191302 -18.93676225 15.22658145 -10.44116211 7.46826172 C-9.61149933 6.7052475 -8.78183655 5.94223328 -7.92703247 5.15609741 C-7.17134476 4.47108154 -6.41565704 3.78606567 -5.6370697 3.08029175 C-4.65014334 2.18216672 -4.65014334 2.18216672 -3.64327908 1.26589775 C-2 0 -2 0 0 0 Z " fill="#F4F4F4" transform="translate(661,134)"/>
</svg>
